<?xml version="1.0" encoding="UTF-8" standalone="no"?>
<!DOCTYPE svg PUBLIC "-//W3C//DTD SVG 1.1//EN"
 "http://www.w3.org/Graphics/SVG/1.1/DTD/svg11.dtd">
<!-- Generated by graphviz version 2.43.0 (0)
 -->
<!-- Title: G Pages: 1 -->
<svg width="888pt" height="778pt"
 viewBox="0.00 0.00 888.00 778.00" xmlns="http://www.w3.org/2000/svg" xmlns:xlink="http://www.w3.org/1999/xlink">
<g id="graph0" class="graph" transform="scale(1 1) rotate(0) translate(4 774)">
<title>G</title>
<polygon fill="white" stroke="transparent" points="-4,4 -4,-774 884,-774 884,4 -4,4"/>
<g id="clust1" class="cluster">
<title>cluster_inputs</title>
<polygon fill="none" stroke="black" points="17,-687 17,-762 809,-762 809,-687 17,-687"/>
<text text-anchor="middle" x="413" y="-746.8" font-family="Times,serif" font-size="14.00">Inputs</text>
</g>
<g id="clust2" class="cluster">
<title>cluster_tools</title>
<polygon fill="none" stroke="black" points="175,-593 175,-668 651,-668 651,-593 175,-593"/>
<text text-anchor="middle" x="413" y="-652.8" font-family="Times,serif" font-size="14.00">External Tools</text>
</g>
<g id="clust3" class="cluster">
<title>cluster_equivfusion</title>
<polygon fill="none" stroke="black" points="8,-8 8,-574 872,-574 872,-8 8,-8"/>
<text text-anchor="middle" x="440" y="-558.8" font-family="Times,serif" font-size="14.00">EquivFusion</text>
</g>
<g id="clust4" class="cluster">
<title>cluster_core_dialects</title>
<polygon fill="none" stroke="black" points="202,-280 202,-442 678,-442 678,-280 202,-280"/>
<text text-anchor="middle" x="440" y="-426.8" font-family="Times,serif" font-size="14.00">Core dialects</text>
</g>
<g id="clust5" class="cluster">
<title>cluster_outputs</title>
<polygon fill="none" stroke="black" points="188,-148 188,-223 692,-223 692,-148 188,-148"/>
<text text-anchor="middle" x="440" y="-207.8" font-family="Times,serif" font-size="14.00">Output Formats</text>
</g>
<g id="clust7" class="cluster">
<title>cluster_solvers</title>
<polygon fill="none" stroke="black" points="16,-16 16,-91 864,-91 864,-16 16,-16"/>
<text text-anchor="middle" x="440" y="-75.8" font-family="Times,serif" font-size="14.00">Solvers</text>
</g>
<!-- SV -->
<g id="node1" class="node">
<title>SV</title>
<polygon fill="#ffff99" stroke="black" points="169,-731 25,-731 25,-695 169,-695 169,-731"/>
<text text-anchor="middle" x="97" y="-709.3" font-family="Times,serif" font-size="14.00">SV</text>
</g>
<!-- Slang -->
<g id="node6" class="node">
<title>Slang</title>
<polygon fill="white" stroke="black" points="327,-637 183,-637 183,-601 327,-601 327,-637"/>
<text text-anchor="middle" x="255" y="-615.3" font-family="Times,serif" font-size="14.00">Slang</text>
</g>
<!-- SV&#45;&gt;Slang -->
<g id="edge18" class="edge">
<title>SV&#45;&gt;Slang</title>
<path fill="none" stroke="black" d="M126.35,-694.91C151.88,-680.05 189.03,-658.41 216.86,-642.21"/>
<polygon fill="black" stroke="black" points="218.66,-645.21 225.54,-637.15 215.14,-639.16 218.66,-645.21"/>
</g>
<!-- Netlist -->
<g id="node2" class="node">
<title>Netlist</title>
<polygon fill="#ffff99" stroke="black" points="327,-731 183,-731 183,-695 327,-695 327,-731"/>
<text text-anchor="middle" x="255" y="-709.3" font-family="Times,serif" font-size="14.00">Netlist</text>
</g>
<!-- Netlist&#45;&gt;Slang -->
<g id="edge17" class="edge">
<title>Netlist&#45;&gt;Slang</title>
<path fill="none" stroke="black" d="M255,-694.7C255,-681.46 255,-662.95 255,-647.66"/>
<polygon fill="black" stroke="black" points="258.5,-647.23 255,-637.23 251.5,-647.23 258.5,-647.23"/>
</g>
<!-- C -->
<g id="node3" class="node">
<title>C</title>
<polygon fill="#ffff99" stroke="black" points="485,-731 341,-731 341,-695 485,-695 485,-731"/>
<text text-anchor="middle" x="413" y="-709.3" font-family="Times,serif" font-size="14.00">C/C++</text>
</g>
<!-- Polygeist -->
<g id="node7" class="node">
<title>Polygeist</title>
<polygon fill="white" stroke="black" points="485,-637 341,-637 341,-601 485,-601 485,-637"/>
<text text-anchor="middle" x="413" y="-615.3" font-family="Times,serif" font-size="14.00">Polygeist</text>
</g>
<!-- C&#45;&gt;Polygeist -->
<g id="edge15" class="edge">
<title>C&#45;&gt;Polygeist</title>
<path fill="none" stroke="black" d="M413,-694.7C413,-681.46 413,-662.95 413,-647.66"/>
<polygon fill="black" stroke="black" points="416.5,-647.23 413,-637.23 409.5,-647.23 416.5,-647.23"/>
</g>
<!-- Pytorch -->
<g id="node4" class="node">
<title>Pytorch</title>
<polygon fill="#ffff99" stroke="black" points="643,-731 499,-731 499,-695 643,-695 643,-731"/>
<text text-anchor="middle" x="571" y="-709.3" font-family="Times,serif" font-size="14.00">Pytorch</text>
</g>
<!-- TorchMLIR -->
<g id="node8" class="node">
<title>TorchMLIR</title>
<polygon fill="white" stroke="black" points="643,-637 499,-637 499,-601 643,-601 643,-637"/>
<text text-anchor="middle" x="571" y="-615.3" font-family="Times,serif" font-size="14.00">torch&#45;mlir</text>
</g>
<!-- Pytorch&#45;&gt;TorchMLIR -->
<g id="edge13" class="edge">
<title>Pytorch&#45;&gt;TorchMLIR</title>
<path fill="none" stroke="black" d="M571,-694.7C571,-681.46 571,-662.95 571,-647.66"/>
<polygon fill="black" stroke="black" points="574.5,-647.23 571,-637.23 567.5,-647.23 574.5,-647.23"/>
</g>
<!-- Chisel -->
<g id="node5" class="node">
<title>Chisel</title>
<polygon fill="#ffff99" stroke="black" points="801,-731 657,-731 657,-695 801,-695 801,-731"/>
<text text-anchor="middle" x="729" y="-709.3" font-family="Times,serif" font-size="14.00">Chisel</text>
</g>
<!-- FIRFile -->
<g id="node9" class="node">
<title>FIRFile</title>
<polygon fill="#7fc97f" stroke="black" points="797,-637 659,-637 659,-601 803,-601 803,-631 797,-637"/>
<polyline fill="none" stroke="black" points="797,-637 797,-631 "/>
<polyline fill="none" stroke="black" points="803,-631 797,-631 "/>
<text text-anchor="middle" x="731" y="-615.3" font-family="Times,serif" font-size="14.00">.fir</text>
</g>
<!-- Chisel&#45;&gt;FIRFile -->
<g id="edge20" class="edge">
<title>Chisel&#45;&gt;FIRFile</title>
<path fill="none" stroke="black" d="M729.38,-694.7C729.66,-681.46 730.07,-662.95 730.4,-647.66"/>
<polygon fill="black" stroke="black" points="733.91,-647.3 730.63,-637.23 726.91,-647.15 733.91,-647.3"/>
</g>
<!-- MLIR -->
<g id="node10" class="node">
<title>MLIR</title>
<polygon fill="white" stroke="black" points="512,-543 368,-543 368,-507 512,-507 512,-543"/>
<text text-anchor="middle" x="440" y="-521.3" font-family="Times,serif" font-size="14.00">MLIR</text>
</g>
<!-- Slang&#45;&gt;MLIR -->
<g id="edge19" class="edge">
<title>Slang&#45;&gt;MLIR</title>
<path fill="none" stroke="black" d="M289.36,-600.91C319.51,-585.92 363.52,-564.03 396.19,-547.79"/>
<polygon fill="black" stroke="black" points="398.11,-550.74 405.51,-543.15 394.99,-544.47 398.11,-550.74"/>
</g>
<!-- Polygeist&#45;&gt;MLIR -->
<g id="edge16" class="edge">
<title>Polygeist&#45;&gt;MLIR</title>
<path fill="none" stroke="black" d="M418.08,-600.7C422,-587.33 427.5,-568.59 432.01,-553.22"/>
<polygon fill="black" stroke="black" points="435.49,-553.81 434.94,-543.23 428.77,-551.84 435.49,-553.81"/>
</g>
<!-- TorchMLIR&#45;&gt;MLIR -->
<g id="edge14" class="edge">
<title>TorchMLIR&#45;&gt;MLIR</title>
<path fill="none" stroke="black" d="M546.67,-600.91C525.93,-586.35 495.95,-565.29 473.04,-549.21"/>
<polygon fill="black" stroke="black" points="474.84,-546.19 464.65,-543.31 470.82,-551.92 474.84,-546.19"/>
</g>
<!-- FIRFile&#45;&gt;MLIR -->
<g id="edge21" class="edge">
<title>FIRFile&#45;&gt;MLIR</title>
<path fill="none" stroke="black" d="M678.84,-600.98C670.53,-598.3 662.03,-595.56 654,-593 603.93,-577.03 547.17,-559.28 504.69,-546.06"/>
<polygon fill="black" stroke="black" points="505.62,-542.68 495.03,-543.05 503.54,-549.37 505.62,-542.68"/>
</g>
<!-- Seq -->
<g id="node12" class="node">
<title>Seq</title>
<polygon fill="#ffcc99" stroke="black" points="512,-411 368,-411 368,-375 512,-375 512,-411"/>
<text text-anchor="middle" x="440" y="-389.3" font-family="Times,serif" font-size="14.00">Seq</text>
</g>
<!-- MLIR&#45;&gt;Seq -->
<g id="edge10" class="edge">
<title>MLIR&#45;&gt;Seq</title>
<path fill="none" stroke="black" d="M440,-506.74C440,-492.7 440,-472.05 440,-452.24"/>
<polygon fill="black" stroke="black" points="443.5,-452 440,-442 436.5,-452 443.5,-452"/>
</g>
<!-- HW -->
<g id="node11" class="node">
<title>HW</title>
<polygon fill="#ffcc99" stroke="black" points="354,-324 210,-324 210,-288 354,-288 354,-324"/>
<text text-anchor="middle" x="282" y="-302.3" font-family="Times,serif" font-size="14.00">HW</text>
</g>
<!-- Seq&#45;&gt;HW -->
<g id="edge2" class="edge">
<title>Seq&#45;&gt;HW</title>
<path fill="none" stroke="black" d="M408.03,-374.8C383.42,-361.56 349.26,-343.18 322.7,-328.9"/>
<polygon fill="black" stroke="black" points="324.12,-325.69 313.66,-324.03 320.8,-331.85 324.12,-325.69"/>
<text text-anchor="middle" x="391.5" y="-345.8" font-family="Times,serif" font-size="14.00">unroll</text>
</g>
<!-- Comb -->
<g id="node13" class="node">
<title>Comb</title>
<polygon fill="#ffcc99" stroke="black" points="512,-324 368,-324 368,-288 512,-288 512,-324"/>
<text text-anchor="middle" x="440" y="-302.3" font-family="Times,serif" font-size="14.00">Comb</text>
</g>
<!-- Seq&#45;&gt;Comb -->
<g id="edge1" class="edge">
<title>Seq&#45;&gt;Comb</title>
<path fill="none" stroke="black" d="M440,-374.8C440,-363.16 440,-347.55 440,-334.24"/>
<polygon fill="black" stroke="black" points="443.5,-334.18 440,-324.18 436.5,-334.18 443.5,-334.18"/>
<text text-anchor="middle" x="461.5" y="-345.8" font-family="Times,serif" font-size="14.00">unroll</text>
</g>
<!-- Verif -->
<g id="node14" class="node">
<title>Verif</title>
<polygon fill="#ffcc99" stroke="black" points="670,-324 526,-324 526,-288 670,-288 670,-324"/>
<text text-anchor="middle" x="598" y="-302.3" font-family="Times,serif" font-size="14.00">Verif</text>
</g>
<!-- Seq&#45;&gt;Verif -->
<!-- AIGER -->
<g id="node16" class="node">
<title>AIGER</title>
<polygon fill="#beaed4" stroke="black" points="512,-192 368,-192 368,-156 512,-156 512,-192"/>
<text text-anchor="middle" x="440" y="-170.3" font-family="Times,serif" font-size="14.00">AIGER</text>
</g>
<!-- Comb&#45;&gt;AIGER -->
<g id="edge11" class="edge">
<title>Comb&#45;&gt;AIGER</title>
<path fill="none" stroke="black" d="M440,-280C440,-266.67 440,-249.66 440,-233.24"/>
<polygon fill="black" stroke="black" points="443.5,-233 440,-223 436.5,-233 443.5,-233"/>
</g>
<!-- SMTLIB -->
<g id="node15" class="node">
<title>SMTLIB</title>
<polygon fill="#beaed4" stroke="black" points="340,-192 196,-192 196,-156 340,-156 340,-192"/>
<text text-anchor="middle" x="268" y="-170.3" font-family="Times,serif" font-size="14.00">SMTLIB</text>
</g>
<!-- SMTLIB&#45;&gt;AIGER -->
<!-- BTOR2 -->
<g id="node17" class="node">
<title>BTOR2</title>
<polygon fill="#beaed4" stroke="black" points="684,-192 540,-192 540,-156 684,-156 684,-192"/>
<text text-anchor="middle" x="612" y="-170.3" font-family="Times,serif" font-size="14.00">BTOR2</text>
</g>
<!-- AIGER&#45;&gt;BTOR2 -->
<!-- bitwuzla -->
<g id="node19" class="node">
<title>bitwuzla</title>
<polygon fill="#7fc97f" stroke="black" points="512,-60 368,-60 368,-24 512,-24 512,-60"/>
<text text-anchor="middle" x="440" y="-38.3" font-family="Times,serif" font-size="14.00">bitwuzla</text>
</g>
<!-- AIGER&#45;&gt;bitwuzla -->
<g id="edge12" class="edge">
<title>AIGER&#45;&gt;bitwuzla</title>
<path fill="none" stroke="black" d="M440,-148C440,-134.67 440,-117.66 440,-101.24"/>
<polygon fill="black" stroke="black" points="443.5,-101 440,-91 436.5,-101 443.5,-101"/>
</g>
<!-- z3 -->
<g id="node18" class="node">
<title>z3</title>
<polygon fill="#7fc97f" stroke="black" points="168,-60 24,-60 24,-24 168,-24 168,-60"/>
<text text-anchor="middle" x="96" y="-38.3" font-family="Times,serif" font-size="14.00">z3</text>
</g>
<!-- kissat -->
<g id="node21" class="node">
<title>kissat</title>
<polygon fill="#7fc97f" stroke="black" points="340,-60 196,-60 196,-24 340,-24 340,-60"/>
<text text-anchor="middle" x="268" y="-38.3" font-family="Times,serif" font-size="14.00">kissat</text>
</g>
<!-- z3&#45;&gt;kissat -->
<!-- btormc -->
<g id="node20" class="node">
<title>btormc</title>
<polygon fill="#7fc97f" stroke="black" points="684,-60 540,-60 540,-24 684,-24 684,-60"/>
<text text-anchor="middle" x="612" y="-38.3" font-family="Times,serif" font-size="14.00">btormc</text>
</g>
<!-- bitwuzla&#45;&gt;btormc -->
<!-- other -->
<g id="node22" class="node">
<title>other</title>
<polygon fill="#7fc97f" stroke="black" points="856,-60 712,-60 712,-24 856,-24 856,-60"/>
<text text-anchor="middle" x="784" y="-38.3" font-family="Times,serif" font-size="14.00">...</text>
</g>
<!-- btormc&#45;&gt;other -->
<!-- kissat&#45;&gt;bitwuzla -->
</g>
</svg>
