<?xml version="1.0" encoding="UTF-8" standalone="no"?>
<!DOCTYPE svg PUBLIC "-//W3C//DTD SVG 1.1//EN"
 "http://www.w3.org/Graphics/SVG/1.1/DTD/svg11.dtd">
<!-- Generated by graphviz version 2.43.0 (0)
 -->
<!-- Title: G Pages: 1 -->
<svg width="745pt" height="673pt"
 viewBox="0.00 0.00 745.00 673.00" xmlns="http://www.w3.org/2000/svg" xmlns:xlink="http://www.w3.org/1999/xlink">
<g id="graph0" class="graph" transform="scale(1 1) rotate(0) translate(4 669)">
<title>G</title>
<polygon fill="white" stroke="transparent" points="-4,4 -4,-669 741,-669 741,4 -4,4"/>
<g id="clust1" class="cluster">
<title>cluster_inputs</title>
<polygon fill="none" stroke="black" points="95,-582 95,-657 729,-657 729,-582 95,-582"/>
<text text-anchor="middle" x="412" y="-641.8" font-family="Times,serif" font-size="14.00">Inputs</text>
</g>
<g id="clust2" class="cluster">
<title>cluster_tools</title>
<polygon fill="none" stroke="black" points="95,-499 95,-574 729,-574 729,-499 95,-499"/>
<text text-anchor="middle" x="412" y="-558.8" font-family="Times,serif" font-size="14.00">External Tools</text>
</g>
<g id="clust3" class="cluster">
<title>cluster_equivfusion</title>
<polygon fill="none" stroke="black" points="8,-8 8,-427 658,-427 658,-8 8,-8"/>
<text text-anchor="middle" x="333" y="-411.8" font-family="Times,serif" font-size="14.00">EquivFusion</text>
</g>
<g id="clust4" class="cluster">
<title>cluster_core_dialects</title>
<polygon fill="none" stroke="black" points="174,-240 174,-315 650,-315 650,-240 174,-240"/>
<text text-anchor="middle" x="412" y="-299.8" font-family="Times,serif" font-size="14.00">Core dialects</text>
</g>
<g id="clust5" class="cluster">
<title>cluster_outputs</title>
<polygon fill="none" stroke="black" points="174,-128 174,-203 650,-203 650,-128 174,-128"/>
<text text-anchor="middle" x="412" y="-187.8" font-family="Times,serif" font-size="14.00">Output Formats</text>
</g>
<g id="clust6" class="cluster">
<title>cluster_solvers</title>
<polygon fill="none" stroke="black" points="16,-16 16,-91 650,-91 650,-16 16,-16"/>
<text text-anchor="middle" x="333" y="-75.8" font-family="Times,serif" font-size="14.00">Solvers</text>
</g>
<!-- Pytorch -->
<g id="node1" class="node">
<title>Pytorch</title>
<polygon fill="#ffff99" stroke="black" points="721,-600.54 721,-615.46 678.82,-626 619.18,-626 577,-615.46 577,-600.54 619.18,-590 678.82,-590 721,-600.54"/>
<text text-anchor="middle" x="649" y="-604.3" font-family="Times,serif" font-size="14.00">Pytorch</text>
</g>
<!-- TorchMLIR -->
<g id="node5" class="node">
<title>TorchMLIR</title>
<polygon fill="white" stroke="black" points="721,-543 577,-543 577,-507 721,-507 721,-543"/>
<text text-anchor="middle" x="649" y="-521.3" font-family="Times,serif" font-size="14.00">torch&#45;mlir</text>
</g>
<!-- Pytorch&#45;&gt;TorchMLIR -->
<g id="edge4" class="edge">
<title>Pytorch&#45;&gt;TorchMLIR</title>
<path fill="none" stroke="black" d="M649,-589.82C649,-579.19 649,-565.31 649,-553.2"/>
<polygon fill="black" stroke="black" points="652.5,-553.15 649,-543.15 645.5,-553.15 652.5,-553.15"/>
</g>
<!-- C -->
<g id="node2" class="node">
<title>C</title>
<polygon fill="#ffff99" stroke="black" points="563,-600.54 563,-615.46 520.82,-626 461.18,-626 419,-615.46 419,-600.54 461.18,-590 520.82,-590 563,-600.54"/>
<text text-anchor="middle" x="491" y="-604.3" font-family="Times,serif" font-size="14.00">C</text>
</g>
<!-- Polygeist -->
<g id="node7" class="node">
<title>Polygeist</title>
<polygon fill="white" stroke="black" points="563,-543 419,-543 419,-507 563,-507 563,-543"/>
<text text-anchor="middle" x="491" y="-521.3" font-family="Times,serif" font-size="14.00">Polygeist</text>
</g>
<!-- C&#45;&gt;Polygeist -->
<g id="edge6" class="edge">
<title>C&#45;&gt;Polygeist</title>
<path fill="none" stroke="black" d="M491,-589.82C491,-579.19 491,-565.31 491,-553.2"/>
<polygon fill="black" stroke="black" points="494.5,-553.15 491,-543.15 487.5,-553.15 494.5,-553.15"/>
</g>
<!-- Chisel -->
<g id="node3" class="node">
<title>Chisel</title>
<polygon fill="#ffff99" stroke="black" points="405,-600.54 405,-615.46 362.82,-626 303.18,-626 261,-615.46 261,-600.54 303.18,-590 362.82,-590 405,-600.54"/>
<text text-anchor="middle" x="333" y="-604.3" font-family="Times,serif" font-size="14.00">Chisel</text>
</g>
<!-- ScalaCompiler -->
<g id="node8" class="node">
<title>ScalaCompiler</title>
<polygon fill="white" stroke="black" points="405,-543 261,-543 261,-507 405,-507 405,-543"/>
<text text-anchor="middle" x="333" y="-521.3" font-family="Times,serif" font-size="14.00">Scala Compiler</text>
</g>
<!-- Chisel&#45;&gt;ScalaCompiler -->
<g id="edge10" class="edge">
<title>Chisel&#45;&gt;ScalaCompiler</title>
<path fill="none" stroke="black" d="M333,-589.82C333,-579.19 333,-565.31 333,-553.2"/>
<polygon fill="black" stroke="black" points="336.5,-553.15 333,-543.15 329.5,-553.15 336.5,-553.15"/>
</g>
<!-- SV -->
<g id="node4" class="node">
<title>SV</title>
<polygon fill="#ffff99" stroke="black" points="247,-600.54 247,-615.46 204.82,-626 145.18,-626 103,-615.46 103,-600.54 145.18,-590 204.82,-590 247,-600.54"/>
<text text-anchor="middle" x="175" y="-604.3" font-family="Times,serif" font-size="14.00">SV</text>
</g>
<!-- Slang -->
<g id="node6" class="node">
<title>Slang</title>
<polygon fill="white" stroke="black" points="247,-543 103,-543 103,-507 247,-507 247,-543"/>
<text text-anchor="middle" x="175" y="-521.3" font-family="Times,serif" font-size="14.00">Slang</text>
</g>
<!-- SV&#45;&gt;Slang -->
<g id="edge8" class="edge">
<title>SV&#45;&gt;Slang</title>
<path fill="none" stroke="black" d="M175,-589.82C175,-579.19 175,-565.31 175,-553.2"/>
<polygon fill="black" stroke="black" points="178.5,-553.15 175,-543.15 171.5,-553.15 178.5,-553.15"/>
</g>
<!-- MLIR -->
<g id="node10" class="node">
<title>MLIR</title>
<polygon fill="white" stroke="black" points="484,-396 340,-396 340,-360 484,-360 484,-396"/>
<text text-anchor="middle" x="412" y="-374.3" font-family="Times,serif" font-size="14.00">MLIR</text>
</g>
<!-- TorchMLIR&#45;&gt;MLIR -->
<g id="edge5" class="edge">
<title>TorchMLIR&#45;&gt;MLIR</title>
<path fill="none" stroke="black" d="M620.88,-506.8C578.03,-480.58 496.36,-430.61 448.83,-401.53"/>
<polygon fill="black" stroke="black" points="450.44,-398.41 440.08,-396.18 446.78,-404.38 450.44,-398.41"/>
</g>
<!-- Slang&#45;&gt;MLIR -->
<g id="edge9" class="edge">
<title>Slang&#45;&gt;MLIR</title>
<path fill="none" stroke="black" d="M189.59,-506.88C207.03,-487.29 237.92,-455.3 270,-435 293.03,-420.43 320.48,-408.52 345.07,-399.5"/>
<polygon fill="black" stroke="black" points="346.46,-402.72 354.7,-396.06 344.1,-396.13 346.46,-402.72"/>
</g>
<!-- Polygeist&#45;&gt;MLIR -->
<g id="edge7" class="edge">
<title>Polygeist&#45;&gt;MLIR</title>
<path fill="none" stroke="black" d="M481.63,-506.8C467.91,-481.62 442.25,-434.52 426.2,-405.07"/>
<polygon fill="black" stroke="black" points="429.22,-403.29 421.36,-396.18 423.07,-406.64 429.22,-403.29"/>
</g>
<!-- FIRFile -->
<g id="node9" class="node">
<title>FIRFile</title>
<polygon fill="#7fc97f" stroke="black" points="415,-471 277,-471 277,-435 421,-435 421,-465 415,-471"/>
<polyline fill="none" stroke="black" points="415,-471 415,-465 "/>
<polyline fill="none" stroke="black" points="421,-465 415,-465 "/>
<text text-anchor="middle" x="349" y="-449.3" font-family="Times,serif" font-size="14.00">.fir</text>
</g>
<!-- ScalaCompiler&#45;&gt;FIRFile -->
<g id="edge11" class="edge">
<title>ScalaCompiler&#45;&gt;FIRFile</title>
<path fill="none" stroke="black" d="M336.96,-506.7C338.72,-498.98 340.84,-489.71 342.8,-481.11"/>
<polygon fill="black" stroke="black" points="346.27,-481.63 345.09,-471.1 339.45,-480.07 346.27,-481.63"/>
</g>
<!-- FIRFile&#45;&gt;MLIR -->
<g id="edge12" class="edge">
<title>FIRFile&#45;&gt;MLIR</title>
<path fill="none" stroke="black" d="M363.93,-434.7C371.85,-425.52 381.73,-414.07 390.47,-403.94"/>
<polygon fill="black" stroke="black" points="393.29,-406.03 397.18,-396.18 387.99,-401.46 393.29,-406.03"/>
</g>
<!-- HW -->
<g id="node12" class="node">
<title>HW</title>
<polygon fill="#ffcc99" stroke="black" points="484,-284 340,-284 340,-248 484,-248 484,-284"/>
<text text-anchor="middle" x="412" y="-262.3" font-family="Times,serif" font-size="14.00">HW</text>
</g>
<!-- MLIR&#45;&gt;HW -->
<g id="edge1" class="edge">
<title>MLIR&#45;&gt;HW</title>
<path fill="none" stroke="black" d="M412,-359.81C412,-350.29 412,-337.84 412,-325.16"/>
<polygon fill="black" stroke="black" points="415.5,-325 412,-315 408.5,-325 415.5,-325"/>
</g>
<!-- Seq -->
<g id="node11" class="node">
<title>Seq</title>
<polygon fill="#ffcc99" stroke="black" points="642,-284 498,-284 498,-248 642,-248 642,-284"/>
<text text-anchor="middle" x="570" y="-262.3" font-family="Times,serif" font-size="14.00">Seq</text>
</g>
<!-- AIGER -->
<g id="node15" class="node">
<title>AIGER</title>
<polygon fill="#beaed4" stroke="black" points="484,-172 340,-172 340,-136 484,-136 484,-172"/>
<text text-anchor="middle" x="412" y="-150.3" font-family="Times,serif" font-size="14.00">AIGER</text>
</g>
<!-- HW&#45;&gt;AIGER -->
<g id="edge2" class="edge">
<title>HW&#45;&gt;AIGER</title>
<path fill="none" stroke="black" d="M412,-240C412,-231.93 412,-222.61 412,-213.16"/>
<polygon fill="black" stroke="black" points="415.5,-213 412,-203 408.5,-213 415.5,-213"/>
</g>
<!-- Comb -->
<g id="node13" class="node">
<title>Comb</title>
<polygon fill="#ffcc99" stroke="black" points="326,-284 182,-284 182,-248 326,-248 326,-284"/>
<text text-anchor="middle" x="254" y="-262.3" font-family="Times,serif" font-size="14.00">Comb</text>
</g>
<!-- SMTLIB -->
<g id="node14" class="node">
<title>SMTLIB</title>
<polygon fill="#beaed4" stroke="black" points="642,-172 498,-172 498,-136 642,-136 642,-172"/>
<text text-anchor="middle" x="570" y="-150.3" font-family="Times,serif" font-size="14.00">SMTLIB</text>
</g>
<!-- bitwuzla -->
<g id="node18" class="node">
<title>bitwuzla</title>
<polygon fill="#7fc97f" stroke="black" points="484,-60 340,-60 340,-24 484,-24 484,-60"/>
<text text-anchor="middle" x="412" y="-38.3" font-family="Times,serif" font-size="14.00">bitwuzla</text>
</g>
<!-- AIGER&#45;&gt;bitwuzla -->
<g id="edge3" class="edge">
<title>AIGER&#45;&gt;bitwuzla</title>
<path fill="none" stroke="black" d="M412,-128C412,-119.93 412,-110.61 412,-101.16"/>
<polygon fill="black" stroke="black" points="415.5,-101 412,-91 408.5,-101 415.5,-101"/>
</g>
<!-- BTOR2 -->
<g id="node16" class="node">
<title>BTOR2</title>
<polygon fill="#beaed4" stroke="black" points="326,-172 182,-172 182,-136 326,-136 326,-172"/>
<text text-anchor="middle" x="254" y="-150.3" font-family="Times,serif" font-size="14.00">BTOR2</text>
</g>
<!-- z3 -->
<g id="node17" class="node">
<title>z3</title>
<polygon fill="#7fc97f" stroke="black" points="642,-60 498,-60 498,-24 642,-24 642,-60"/>
<text text-anchor="middle" x="570" y="-38.3" font-family="Times,serif" font-size="14.00">z3</text>
</g>
<!-- boolector -->
<g id="node19" class="node">
<title>boolector</title>
<polygon fill="#7fc97f" stroke="black" points="326,-60 182,-60 182,-24 326,-24 326,-60"/>
<text text-anchor="middle" x="254" y="-38.3" font-family="Times,serif" font-size="14.00">boolector</text>
</g>
<!-- kissat -->
<g id="node20" class="node">
<title>kissat</title>
<polygon fill="#7fc97f" stroke="black" points="168,-60 24,-60 24,-24 168,-24 168,-60"/>
<text text-anchor="middle" x="96" y="-38.3" font-family="Times,serif" font-size="14.00">kissat</text>
</g>
</g>
</svg>
