<?xml version="1.0" encoding="UTF-8" standalone="no"?>
<!DOCTYPE svg PUBLIC "-//W3C//DTD SVG 1.1//EN"
 "http://www.w3.org/Graphics/SVG/1.1/DTD/svg11.dtd">
<!-- Generated by graphviz version 2.43.0 (0)
 -->
<!-- Title: G Pages: 1 -->
<svg width="711pt" height="590pt"
 viewBox="0.00 0.00 711.00 590.00" xmlns="http://www.w3.org/2000/svg" xmlns:xlink="http://www.w3.org/1999/xlink">
<g id="graph0" class="graph" transform="scale(1 1) rotate(0) translate(4 586)">
<title>G</title>
<polygon fill="white" stroke="transparent" points="-4,4 -4,-586 707,-586 707,4 -4,4"/>
<g id="clust1" class="cluster">
<title>cluster_inputs</title>
<polygon fill="none" stroke="black" points="83,-499 83,-574 695,-574 695,-499 83,-499"/>
<text text-anchor="middle" x="389" y="-558.8" font-family="Times,serif" font-size="14.00">Inputs</text>
</g>
<g id="clust3" class="cluster">
<title>cluster_equivfusion</title>
<polygon fill="none" stroke="black" points="8,-8 8,-427 514,-427 514,-8 8,-8"/>
<text text-anchor="middle" x="261" y="-411.8" font-family="Times,serif" font-size="14.00">EquivFusion</text>
</g>
<g id="clust4" class="cluster">
<title>cluster_core_dialects</title>
<polygon fill="none" stroke="black" points="138,-240 138,-315 506,-315 506,-240 138,-240"/>
<text text-anchor="middle" x="322" y="-299.8" font-family="Times,serif" font-size="14.00">Core dialects</text>
</g>
<g id="clust5" class="cluster">
<title>cluster_outputs</title>
<polygon fill="none" stroke="black" points="138,-128 138,-203 506,-203 506,-128 138,-128"/>
<text text-anchor="middle" x="322" y="-187.8" font-family="Times,serif" font-size="14.00">Output Formats</text>
</g>
<g id="clust6" class="cluster">
<title>cluster_solvers</title>
<polygon fill="none" stroke="black" points="16,-16 16,-91 506,-91 506,-16 16,-16"/>
<text text-anchor="middle" x="261" y="-75.8" font-family="Times,serif" font-size="14.00">Solvers</text>
</g>
<!-- Pytorch -->
<g id="node1" class="node">
<title>Pytorch</title>
<polygon fill="#ffff99" stroke="black" points="199,-517.54 199,-532.46 167.37,-543 122.63,-543 91,-532.46 91,-517.54 122.63,-507 167.37,-507 199,-517.54"/>
<text text-anchor="middle" x="145" y="-521.3" font-family="Times,serif" font-size="14.00">Pytorch</text>
</g>
<!-- MLIR -->
<g id="node8" class="node">
<title>MLIR</title>
<polygon fill="white" stroke="black" points="376,-396 268,-396 268,-360 376,-360 376,-396"/>
<text text-anchor="middle" x="322" y="-374.3" font-family="Times,serif" font-size="14.00">MLIR</text>
</g>
<!-- Pytorch&#45;&gt;MLIR -->
<g id="edge4" class="edge">
<title>Pytorch&#45;&gt;MLIR</title>
<path fill="none" stroke="black" d="M166,-506.8C197.54,-480.96 257.23,-432.06 292.93,-402.81"/>
<polygon fill="black" stroke="black" points="295.51,-405.23 301.03,-396.18 291.07,-399.81 295.51,-405.23"/>
</g>
<!-- C -->
<g id="node2" class="node">
<title>C</title>
<polygon fill="#ffff99" stroke="black" points="321,-517.54 321,-532.46 289.37,-543 244.63,-543 213,-532.46 213,-517.54 244.63,-507 289.37,-507 321,-517.54"/>
<text text-anchor="middle" x="267" y="-521.3" font-family="Times,serif" font-size="14.00">C</text>
</g>
<!-- C&#45;&gt;MLIR -->
<g id="edge5" class="edge">
<title>C&#45;&gt;MLIR</title>
<path fill="none" stroke="black" d="M273.53,-506.8C282.99,-481.83 300.63,-435.34 311.82,-405.84"/>
<polygon fill="black" stroke="black" points="315.21,-406.77 315.48,-396.18 308.66,-404.29 315.21,-406.77"/>
</g>
<!-- Chisel -->
<g id="node3" class="node">
<title>Chisel</title>
<polygon fill="#ffff99" stroke="black" points="443,-517.54 443,-532.46 411.37,-543 366.63,-543 335,-532.46 335,-517.54 366.63,-507 411.37,-507 443,-517.54"/>
<text text-anchor="middle" x="389" y="-521.3" font-family="Times,serif" font-size="14.00">Chisel</text>
</g>
<!-- FIRFile -->
<g id="node7" class="node">
<title>FIRFile</title>
<polygon fill="#7fc97f" stroke="black" points="414,-471 312,-471 312,-435 420,-435 420,-465 414,-471"/>
<polyline fill="none" stroke="black" points="414,-471 414,-465 "/>
<polyline fill="none" stroke="black" points="420,-465 414,-465 "/>
<text text-anchor="middle" x="366" y="-449.3" font-family="Times,serif" font-size="14.00">.fir</text>
</g>
<!-- Chisel&#45;&gt;FIRFile -->
<g id="edge6" class="edge">
<title>Chisel&#45;&gt;FIRFile</title>
<path fill="none" stroke="black" d="M383.31,-506.7C380.75,-498.9 377.67,-489.51 374.82,-480.83"/>
<polygon fill="black" stroke="black" points="378.07,-479.51 371.62,-471.1 371.42,-481.7 378.07,-479.51"/>
</g>
<!-- Netlist -->
<g id="node4" class="node">
<title>Netlist</title>
<polygon fill="#ffff99" stroke="black" points="565,-517.54 565,-532.46 533.37,-543 488.63,-543 457,-532.46 457,-517.54 488.63,-507 533.37,-507 565,-517.54"/>
<text text-anchor="middle" x="511" y="-521.3" font-family="Times,serif" font-size="14.00">Netlist</text>
</g>
<!-- Slang -->
<g id="node6" class="node">
<title>Slang</title>
<polygon fill="#ffff99" stroke="black" points="565,-445.54 565,-460.46 533.37,-471 488.63,-471 457,-460.46 457,-445.54 488.63,-435 533.37,-435 565,-445.54"/>
<text text-anchor="middle" x="511" y="-449.3" font-family="Times,serif" font-size="14.00">Slang</text>
</g>
<!-- Netlist&#45;&gt;Slang -->
<g id="edge9" class="edge">
<title>Netlist&#45;&gt;Slang</title>
<path fill="none" stroke="black" d="M511,-506.7C511,-498.98 511,-489.71 511,-481.11"/>
<polygon fill="black" stroke="black" points="514.5,-481.1 511,-471.1 507.5,-481.1 514.5,-481.1"/>
</g>
<!-- SV -->
<g id="node5" class="node">
<title>SV</title>
<polygon fill="#ffff99" stroke="black" points="687,-517.54 687,-532.46 655.37,-543 610.63,-543 579,-532.46 579,-517.54 610.63,-507 655.37,-507 687,-517.54"/>
<text text-anchor="middle" x="633" y="-521.3" font-family="Times,serif" font-size="14.00">SV</text>
</g>
<!-- SV&#45;&gt;Slang -->
<g id="edge8" class="edge">
<title>SV&#45;&gt;Slang</title>
<path fill="none" stroke="black" d="M605.92,-508.46C588.55,-498.5 565.79,-485.44 546.91,-474.61"/>
<polygon fill="black" stroke="black" points="548.42,-471.43 538,-469.49 544.93,-477.5 548.42,-471.43"/>
</g>
<!-- Slang&#45;&gt;MLIR -->
<g id="edge10" class="edge">
<title>Slang&#45;&gt;MLIR</title>
<path fill="none" stroke="black" d="M476.77,-438.78C448.6,-427.9 408.16,-412.28 375.68,-399.73"/>
<polygon fill="black" stroke="black" points="376.9,-396.45 366.31,-396.12 374.38,-402.98 376.9,-396.45"/>
</g>
<!-- FIRFile&#45;&gt;MLIR -->
<g id="edge7" class="edge">
<title>FIRFile&#45;&gt;MLIR</title>
<path fill="none" stroke="black" d="M355.57,-434.7C350.2,-425.79 343.55,-414.75 337.58,-404.85"/>
<polygon fill="black" stroke="black" points="340.51,-402.93 332.35,-396.18 334.52,-406.55 340.51,-402.93"/>
</g>
<!-- HW -->
<g id="node10" class="node">
<title>HW</title>
<polygon fill="#ffcc99" stroke="black" points="376,-284 268,-284 268,-248 376,-248 376,-284"/>
<text text-anchor="middle" x="322" y="-262.3" font-family="Times,serif" font-size="14.00">HW</text>
</g>
<!-- MLIR&#45;&gt;HW -->
<g id="edge1" class="edge">
<title>MLIR&#45;&gt;HW</title>
<path fill="none" stroke="black" d="M322,-359.81C322,-350.29 322,-337.84 322,-325.16"/>
<polygon fill="black" stroke="black" points="325.5,-325 322,-315 318.5,-325 325.5,-325"/>
</g>
<!-- Seq -->
<g id="node9" class="node">
<title>Seq</title>
<polygon fill="#ffcc99" stroke="black" points="498,-284 390,-284 390,-248 498,-248 498,-284"/>
<text text-anchor="middle" x="444" y="-262.3" font-family="Times,serif" font-size="14.00">Seq</text>
</g>
<!-- AIGER -->
<g id="node13" class="node">
<title>AIGER</title>
<polygon fill="#beaed4" stroke="black" points="376,-172 268,-172 268,-136 376,-136 376,-172"/>
<text text-anchor="middle" x="322" y="-150.3" font-family="Times,serif" font-size="14.00">AIGER</text>
</g>
<!-- HW&#45;&gt;AIGER -->
<g id="edge2" class="edge">
<title>HW&#45;&gt;AIGER</title>
<path fill="none" stroke="black" d="M322,-240C322,-231.93 322,-222.61 322,-213.16"/>
<polygon fill="black" stroke="black" points="325.5,-213 322,-203 318.5,-213 325.5,-213"/>
</g>
<!-- Comb -->
<g id="node11" class="node">
<title>Comb</title>
<polygon fill="#ffcc99" stroke="black" points="254,-284 146,-284 146,-248 254,-248 254,-284"/>
<text text-anchor="middle" x="200" y="-262.3" font-family="Times,serif" font-size="14.00">Comb</text>
</g>
<!-- SMTLIB -->
<g id="node12" class="node">
<title>SMTLIB</title>
<polygon fill="#beaed4" stroke="black" points="498,-172 390,-172 390,-136 498,-136 498,-172"/>
<text text-anchor="middle" x="444" y="-150.3" font-family="Times,serif" font-size="14.00">SMTLIB</text>
</g>
<!-- bitwuzla -->
<g id="node16" class="node">
<title>bitwuzla</title>
<polygon fill="#7fc97f" stroke="black" points="376,-60 268,-60 268,-24 376,-24 376,-60"/>
<text text-anchor="middle" x="322" y="-38.3" font-family="Times,serif" font-size="14.00">bitwuzla</text>
</g>
<!-- AIGER&#45;&gt;bitwuzla -->
<g id="edge3" class="edge">
<title>AIGER&#45;&gt;bitwuzla</title>
<path fill="none" stroke="black" d="M322,-128C322,-119.93 322,-110.61 322,-101.16"/>
<polygon fill="black" stroke="black" points="325.5,-101 322,-91 318.5,-101 325.5,-101"/>
</g>
<!-- BTOR2 -->
<g id="node14" class="node">
<title>BTOR2</title>
<polygon fill="#beaed4" stroke="black" points="254,-172 146,-172 146,-136 254,-136 254,-172"/>
<text text-anchor="middle" x="200" y="-150.3" font-family="Times,serif" font-size="14.00">BTOR2</text>
</g>
<!-- z3 -->
<g id="node15" class="node">
<title>z3</title>
<polygon fill="#7fc97f" stroke="black" points="498,-60 390,-60 390,-24 498,-24 498,-60"/>
<text text-anchor="middle" x="444" y="-38.3" font-family="Times,serif" font-size="14.00">z3</text>
</g>
<!-- boolector -->
<g id="node17" class="node">
<title>boolector</title>
<polygon fill="#7fc97f" stroke="black" points="254,-60 146,-60 146,-24 254,-24 254,-60"/>
<text text-anchor="middle" x="200" y="-38.3" font-family="Times,serif" font-size="14.00">boolector</text>
</g>
<!-- kissat -->
<g id="node18" class="node">
<title>kissat</title>
<polygon fill="#7fc97f" stroke="black" points="132,-60 24,-60 24,-24 132,-24 132,-60"/>
<text text-anchor="middle" x="78" y="-38.3" font-family="Times,serif" font-size="14.00">kissat</text>
</g>
</g>
</svg>
